<mxfile host="app.diagrams.net" modified="2024-04-28T13:05:34.283Z" agent="Mozilla/5.0 (X11; Linux x86_64; rv:125.0) Gecko/20100101 Firefox/125.0" etag="U9TFMKLOPflMEjl3C47x" version="24.3.1" type="device">
  <diagram name="Page-1" id="NkTl-sau3ueL-WUSHtaa">
    <mxGraphModel dx="2313" dy="1370" grid="0" gridSize="10" guides="1" tooltips="1" connect="1" arrows="1" fold="1" page="1" pageScale="1" pageWidth="827" pageHeight="1169" math="0" shadow="0">
      <root>
        <mxCell id="0" />
        <mxCell id="1" parent="0" />
        <mxCell id="u9UhjwBYg-zRhIwgngRB-2" value="Cluster" style="rounded=0;whiteSpace=wrap;html=1;verticalAlign=bottom;" vertex="1" parent="1">
          <mxGeometry x="570" y="410" width="970" height="620" as="geometry" />
        </mxCell>
        <mxCell id="u9UhjwBYg-zRhIwgngRB-3" value="namespace: home" style="rounded=0;whiteSpace=wrap;html=1;verticalAlign=bottom;" vertex="1" parent="1">
          <mxGeometry x="580" y="660" width="310" height="339.99999999999994" as="geometry" />
        </mxCell>
        <mxCell id="u9UhjwBYg-zRhIwgngRB-4" value="namespace: openebs" style="rounded=0;whiteSpace=wrap;html=1;verticalAlign=bottom;" vertex="1" parent="1">
          <mxGeometry x="900" y="660" width="310" height="339.99999999999994" as="geometry" />
        </mxCell>
        <mxCell id="u9UhjwBYg-zRhIwgngRB-5" value="namespace: media" style="rounded=0;whiteSpace=wrap;html=1;verticalAlign=bottom;" vertex="1" parent="1">
          <mxGeometry x="1220" y="660" width="310" height="339.99999999999994" as="geometry" />
        </mxCell>
        <mxCell id="u9UhjwBYg-zRhIwgngRB-6" value="smbd" style="whiteSpace=wrap;html=1;aspect=fixed;verticalAlign=bottom;" vertex="1" parent="1">
          <mxGeometry x="1239" y="678" width="80" height="80" as="geometry" />
        </mxCell>
        <mxCell id="u9UhjwBYg-zRhIwgngRB-7" value="photoprism" style="whiteSpace=wrap;html=1;aspect=fixed;verticalAlign=bottom;" vertex="1" parent="1">
          <mxGeometry x="1349" y="678" width="80" height="80" as="geometry" />
        </mxCell>
        <mxCell id="u9UhjwBYg-zRhIwgngRB-16" style="edgeStyle=orthogonalEdgeStyle;rounded=0;orthogonalLoop=1;jettySize=auto;html=1;exitX=0;exitY=0.5;exitDx=0;exitDy=0;" edge="1" parent="1" source="u9UhjwBYg-zRhIwgngRB-8" target="u9UhjwBYg-zRhIwgngRB-15">
          <mxGeometry relative="1" as="geometry" />
        </mxCell>
        <mxCell id="u9UhjwBYg-zRhIwgngRB-8" value="nfs-server" style="whiteSpace=wrap;html=1;aspect=fixed;verticalAlign=bottom;" vertex="1" parent="1">
          <mxGeometry x="1109" y="778" width="80" height="80" as="geometry" />
        </mxCell>
        <mxCell id="u9UhjwBYg-zRhIwgngRB-13" style="edgeStyle=orthogonalEdgeStyle;rounded=0;orthogonalLoop=1;jettySize=auto;html=1;exitX=0;exitY=0.5;exitDx=0;exitDy=0;" edge="1" parent="1" source="u9UhjwBYg-zRhIwgngRB-10" target="u9UhjwBYg-zRhIwgngRB-12">
          <mxGeometry relative="1" as="geometry" />
        </mxCell>
        <mxCell id="u9UhjwBYg-zRhIwgngRB-10" value="vaultwarden" style="whiteSpace=wrap;html=1;aspect=fixed;verticalAlign=bottom;" vertex="1" parent="1">
          <mxGeometry x="799" y="678" width="80" height="80" as="geometry" />
        </mxCell>
        <mxCell id="u9UhjwBYg-zRhIwgngRB-11" value="ZFS Pool (LocalPV)" style="rounded=0;whiteSpace=wrap;html=1;" vertex="1" parent="1">
          <mxGeometry x="580" y="542" width="950" height="110" as="geometry" />
        </mxCell>
        <mxCell id="u9UhjwBYg-zRhIwgngRB-20" style="edgeStyle=orthogonalEdgeStyle;rounded=0;orthogonalLoop=1;jettySize=auto;html=1;exitX=0.5;exitY=0;exitDx=0;exitDy=0;exitPerimeter=0;" edge="1" parent="1" source="u9UhjwBYg-zRhIwgngRB-12" target="u9UhjwBYg-zRhIwgngRB-14">
          <mxGeometry relative="1" as="geometry" />
        </mxCell>
        <mxCell id="u9UhjwBYg-zRhIwgngRB-12" value="RWO&lt;br&gt;pvc" style="shape=cylinder3;whiteSpace=wrap;html=1;boundedLbl=1;backgroundOutline=1;size=15;" vertex="1" parent="1">
          <mxGeometry x="689" y="678" width="60" height="80" as="geometry" />
        </mxCell>
        <mxCell id="u9UhjwBYg-zRhIwgngRB-14" value="dataset&lt;br&gt;(vaultwarden)" style="whiteSpace=wrap;html=1;aspect=fixed;" vertex="1" parent="1">
          <mxGeometry x="680" y="562" width="80" height="80" as="geometry" />
        </mxCell>
        <mxCell id="u9UhjwBYg-zRhIwgngRB-18" style="edgeStyle=orthogonalEdgeStyle;rounded=0;orthogonalLoop=1;jettySize=auto;html=1;exitX=0.5;exitY=0;exitDx=0;exitDy=0;exitPerimeter=0;" edge="1" parent="1" source="u9UhjwBYg-zRhIwgngRB-15" target="u9UhjwBYg-zRhIwgngRB-17">
          <mxGeometry relative="1" as="geometry" />
        </mxCell>
        <mxCell id="u9UhjwBYg-zRhIwgngRB-15" value="RWO&lt;br&gt;pvc" style="shape=cylinder3;whiteSpace=wrap;html=1;boundedLbl=1;backgroundOutline=1;size=15;" vertex="1" parent="1">
          <mxGeometry x="1019" y="778" width="60" height="80" as="geometry" />
        </mxCell>
        <mxCell id="u9UhjwBYg-zRhIwgngRB-17" value="dataset&lt;br&gt;(nfs-server)" style="whiteSpace=wrap;html=1;aspect=fixed;" vertex="1" parent="1">
          <mxGeometry x="900" y="562" width="80" height="80" as="geometry" />
        </mxCell>
        <mxCell id="u9UhjwBYg-zRhIwgngRB-24" style="edgeStyle=orthogonalEdgeStyle;rounded=0;orthogonalLoop=1;jettySize=auto;html=1;exitX=0;exitY=0.5;exitDx=0;exitDy=0;exitPerimeter=0;shape=link;dashed=1;" edge="1" parent="1" source="u9UhjwBYg-zRhIwgngRB-21" target="u9UhjwBYg-zRhIwgngRB-8">
          <mxGeometry relative="1" as="geometry" />
        </mxCell>
        <mxCell id="u9UhjwBYg-zRhIwgngRB-21" value="RWX&lt;br&gt;pvc" style="shape=cylinder3;whiteSpace=wrap;html=1;boundedLbl=1;backgroundOutline=1;size=15;" vertex="1" parent="1">
          <mxGeometry x="1299" y="778" width="60" height="80" as="geometry" />
        </mxCell>
        <mxCell id="u9UhjwBYg-zRhIwgngRB-22" style="edgeStyle=orthogonalEdgeStyle;rounded=0;orthogonalLoop=1;jettySize=auto;html=1;exitX=0.5;exitY=1;exitDx=0;exitDy=0;entryX=1;entryY=0;entryDx=0;entryDy=15;entryPerimeter=0;" edge="1" parent="1" source="u9UhjwBYg-zRhIwgngRB-7" target="u9UhjwBYg-zRhIwgngRB-21">
          <mxGeometry relative="1" as="geometry" />
        </mxCell>
        <mxCell id="u9UhjwBYg-zRhIwgngRB-23" style="edgeStyle=orthogonalEdgeStyle;rounded=0;orthogonalLoop=1;jettySize=auto;html=1;exitX=0.5;exitY=1;exitDx=0;exitDy=0;entryX=0;entryY=0;entryDx=0;entryDy=15;entryPerimeter=0;" edge="1" parent="1" source="u9UhjwBYg-zRhIwgngRB-6" target="u9UhjwBYg-zRhIwgngRB-21">
          <mxGeometry relative="1" as="geometry" />
        </mxCell>
        <mxCell id="u9UhjwBYg-zRhIwgngRB-25" value="User" style="shape=umlActor;verticalLabelPosition=bottom;verticalAlign=top;html=1;outlineConnect=0;" vertex="1" parent="1">
          <mxGeometry x="170" y="585" width="30" height="60" as="geometry" />
        </mxCell>
        <mxCell id="u9UhjwBYg-zRhIwgngRB-27" value="velero&lt;br&gt;CLI" style="ellipse;whiteSpace=wrap;html=1;aspect=fixed;" vertex="1" parent="1">
          <mxGeometry x="320" y="600" width="80" height="80" as="geometry" />
        </mxCell>
        <mxCell id="u9UhjwBYg-zRhIwgngRB-28" value="kopia&lt;br&gt;CLI" style="ellipse;whiteSpace=wrap;html=1;aspect=fixed;" vertex="1" parent="1">
          <mxGeometry x="320" y="420" width="80" height="80" as="geometry" />
        </mxCell>
        <mxCell id="u9UhjwBYg-zRhIwgngRB-31" value="namespace: system" style="rounded=0;whiteSpace=wrap;html=1;verticalAlign=bottom;" vertex="1" parent="1">
          <mxGeometry x="580" y="420" width="951" height="116" as="geometry" />
        </mxCell>
        <mxCell id="u9UhjwBYg-zRhIwgngRB-32" value="Azure&lt;br&gt;Blob&lt;br&gt;Storage" style="whiteSpace=wrap;html=1;aspect=fixed;" vertex="1" parent="1">
          <mxGeometry x="788" y="210" width="80" height="80" as="geometry" />
        </mxCell>
        <mxCell id="u9UhjwBYg-zRhIwgngRB-33" value="velero&lt;br&gt;container" style="shape=cylinder3;whiteSpace=wrap;html=1;boundedLbl=1;backgroundOutline=1;size=15;" vertex="1" parent="1">
          <mxGeometry x="798" y="102" width="60" height="80" as="geometry" />
        </mxCell>
        <mxCell id="u9UhjwBYg-zRhIwgngRB-34" value="backups/&lt;br&gt;(Resources)" style="rounded=0;whiteSpace=wrap;html=1;" vertex="1" parent="1">
          <mxGeometry x="890" y="36" width="120" height="60" as="geometry" />
        </mxCell>
        <mxCell id="u9UhjwBYg-zRhIwgngRB-35" value="kopia/&lt;br&gt;Persistent Volume Data" style="rounded=0;whiteSpace=wrap;html=1;" vertex="1" parent="1">
          <mxGeometry x="890" y="128" width="120" height="60" as="geometry" />
        </mxCell>
        <mxCell id="u9UhjwBYg-zRhIwgngRB-36" value="repo&lt;br&gt;namespace: home" style="rounded=0;whiteSpace=wrap;html=1;" vertex="1" parent="1">
          <mxGeometry x="1053" y="92" width="120" height="60" as="geometry" />
        </mxCell>
        <mxCell id="u9UhjwBYg-zRhIwgngRB-37" value="repo&lt;br&gt;namespace: openebs" style="rounded=0;whiteSpace=wrap;html=1;" vertex="1" parent="1">
          <mxGeometry x="1053" y="161" width="120" height="60" as="geometry" />
        </mxCell>
      </root>
    </mxGraphModel>
  </diagram>
</mxfile>
